<?xml version="1.0" encoding="UTF-8" standalone="no"?>
<!DOCTYPE svg PUBLIC "-//W3C//DTD SVG 1.1//EN" "http://www.w3.org/Graphics/SVG/1.1/DTD/svg11.dtd">
<!-- Created with Vectornator (http://vectornator.io/) -->
<svg height="100%" stroke-miterlimit="10" style="fill-rule:nonzero;clip-rule:evenodd;stroke-linecap:round;stroke-linejoin:round;" version="1.1" viewBox="0 0 400 400" width="100%" xml:space="preserve" xmlns="http://www.w3.org/2000/svg" xmlns:xlink="http://www.w3.org/1999/xlink">
<defs/>
<g id="Layer-1">
<path d="M12 200C12 96.1705 96.1705 12 200 12C303.83 12 388 96.1705 388 200C388 303.83 303.83 388 200 388C96.1705 388 12 303.83 12 200Z" fill="#fbbf24" fill-rule="nonzero" opacity="1" stroke="none"/>
<g opacity="1">
<path d="M200 222.551C212.6 222.551 217.4 203.051 222.2 176.351C227.3 148.151 233.9 118.751 266.9 96.5506C278.9 88.4506 294.2 85.4506 311 85.4506C335.9 85.4506 341 97.1506 341 106.751L341 132.551C341 155.651 288.5 174.851 288.5 203.351C288.5 223.451 302.3 234.251 315.8 234.251C333.5 234.251 345.5 220.751 345.5 205.151L345.5 106.751C345.5 94.1506 337.4 81.2506 311 81.2506C293.3 81.2506 278 85.4506 264.5 92.9506C238.4 107.651 215.3 109.151 200 109.151C184.7 109.151 161.3 107.651 135.2 92.9506C122 85.4506 106.7 81.2506 89 81.2506C62.6 81.2506 54.5 94.1506 54.5 106.751L54.5 205.151C54.5 220.751 66.5 234.251 84.2 234.251C97.7 234.251 111.5 223.451 111.5 203.351C111.5 174.851 58.7 155.651 58.7 132.551L58.7 106.751C58.7 97.1506 64.1 85.4506 89 85.4506C105.8 85.4506 121.1 88.4506 133.1 96.5506C166.1 118.751 172.4 148.151 177.8 176.351C182.6 203.051 187.1 222.551 200 222.551Z" fill="#ffffff" opacity="1" stroke="none"/>
<path d="M204.2 288.923L217 276.123C260.6 249.723 308.2 276.123 347 237.323C361.4 222.523 362.2 195.723 348.6 182.123C332.6 166.123 309.4 170.523 296.6 183.323C296.6 183.323 283.8 196.123 200.2 282.923C116.2 196.123 103.4 183.323 103.4 183.323C91 170.523 67.4 166.123 51.4 182.123C38.2 195.723 38.6 222.123 53.4 236.523C92.2 275.323 139.8 249.723 183.4 276.123L196.2 288.923L196.2 343.723C192.2 361.723 167 360.923 151.8 360.923C149.8 360.923 148.2 362.523 148.2 364.523C148.2 366.923 149.8 368.523 151.8 368.523L248.2 368.523C250.6 368.523 252.2 366.923 252.2 364.523C252.2 362.523 250.6 360.923 248.2 360.923C233 360.923 208.2 361.723 204.2 343.723L204.2 288.923Z" fill="#ffffff" opacity="1" stroke="none"/>
</g>
</g>
</svg>
